<svg width="64" height="64" viewBox="0 0 64 64" fill="none" xmlns="http://www.w3.org/2000/svg">
  <path d="M53.2222 16.1111H29.08L24.9733 10.4578C24.6423 10.0048 24.2088 9.63661 23.7083 9.38324C23.2077 9.12988 22.6544 8.99856 22.0933 9.00001H10.5556C9.61256 9.00001 8.70819 9.37461 8.0414 10.0414C7.3746 10.7082 7 11.6126 7 12.5556V51.6667C7 52.6097 7.3746 53.514 8.0414 54.1808C8.70819 54.8476 9.61256 55.2222 10.5556 55.2222H53.2222C54.1652 55.2222 55.0696 54.8476 55.7364 54.1808C56.4032 53.514 56.7778 52.6097 56.7778 51.6667V19.6667C56.7778 18.7237 56.4032 17.8193 55.7364 17.1525C55.0696 16.4857 54.1652 16.1111 53.2222 16.1111ZM10.5556 19.6667V12.5556H22.0933L26.9289 19.6667H10.5556Z" fill="#3AA6FF" />
</svg>
  