<svg width="64" height="64" viewBox="0 0 64 64" fill="none" xmlns="http://www.w3.org/2000/svg">
<path fill-rule="evenodd" clip-rule="evenodd" d="M29.08 16.1111H53.2222C54.1652 16.1111 55.0696 16.4857 55.7364 17.1525C56.4032 17.8193 56.7778 18.7237 56.7778 19.6667V51.6667C56.7778 52.6097 56.4032 53.514 55.7364 54.1808C55.0696 54.8476 54.1652 55.2222 53.2222 55.2222H10.5556C9.61256 55.2222 8.70819 54.8476 8.0414 54.1808C7.3746 53.514 7 52.6097 7 51.6667V12.5556C7 11.6126 7.3746 10.7082 8.0414 10.0414C8.70819 9.37461 9.61256 9.00001 10.5556 9.00001H22.0933C22.6544 8.99856 23.2078 9.12988 23.7083 9.38324C24.2088 9.63661 24.6423 10.0048 24.9733 10.4578L29.08 16.1111ZM10.5556 12.5556V19.6667H26.9289L22.0933 12.5556H10.5556ZM37.4 44V36.5H41L32 29L23 36.5H26.6V44H37.4Z" fill="#3AA6FF"/>
</svg>
