<svg width="512" height="512" viewBox="0 0 512 512" fill="none" xmlns="http://www.w3.org/2000/svg">
<path d="M451.15 91.45L364.66 49.81C359.776 47.455 354.28 46.6778 348.934 47.5862C343.588 48.4947 338.657 51.0437 334.825 54.88L51.7 313C48.2649 316.117 46.2086 320.471 45.9836 325.104C45.7585 329.737 47.3831 334.27 50.5 337.705C50.875 338.11 51.25 338.5 51.655 338.86L74.77 359.86C77.7904 362.609 81.6783 364.213 85.7585 364.394C89.8386 364.575 93.8532 363.321 97.105 360.85L438.13 102.25C440.706 100.295 443.776 99.0985 446.995 98.7942C450.214 98.4899 453.455 99.0902 456.351 100.528C459.248 101.965 461.685 104.182 463.39 106.93C465.095 109.678 465.999 112.846 466 116.08V115.075C466 110.139 464.606 105.302 461.979 101.123C459.352 96.9435 455.598 93.5907 451.15 91.45V91.45Z" fill="#0065A9"/>
<path d="M451.15 420.55L364.66 462.205C359.774 464.553 354.28 465.327 348.936 464.419C343.591 463.511 338.661 460.965 334.825 457.135L51.7 199C48.2649 195.883 46.2086 191.529 45.9836 186.896C45.7585 182.263 47.3831 177.73 50.5 174.295C50.875 173.89 51.25 173.5 51.655 173.14L74.77 152.14C77.7935 149.379 81.6903 147.768 85.7805 147.587C89.8707 147.406 93.8945 148.667 97.15 151.15L438.13 409.75C440.706 411.705 443.776 412.901 446.995 413.206C450.214 413.51 453.455 412.91 456.351 411.472C459.248 410.035 461.685 407.818 463.39 405.07C465.095 402.322 465.999 399.153 466 395.92V397C465.984 401.923 464.583 406.743 461.957 410.907C459.331 415.072 455.586 418.413 451.15 420.55V420.55Z" fill="#007ACC"/>
<path d="M364.66 462.205C359.774 464.553 354.28 465.327 348.936 464.419C343.591 463.511 338.661 460.965 334.825 457.135C336.979 459.261 339.713 460.704 342.683 461.283C345.654 461.862 348.729 461.552 351.524 460.39C354.319 459.229 356.709 457.269 358.395 454.755C360.08 452.242 360.987 449.286 361 446.26V65.74C361.003 62.6993 360.102 59.7263 358.414 57.1976C356.725 54.6688 354.324 52.6982 351.515 51.5352C348.705 50.3722 345.614 50.0692 342.632 50.6647C339.65 51.2601 336.912 52.7272 334.765 54.88C338.598 51.0451 343.528 48.4959 348.872 47.585C354.217 46.674 359.713 47.4463 364.6 49.795L451.075 91.375C455.537 93.505 459.306 96.8533 461.947 101.034C464.588 105.214 465.993 110.055 466 115V397C466.001 401.941 464.606 406.781 461.976 410.964C459.346 415.146 455.588 418.5 451.135 420.64L364.66 462.205Z" fill="#1F9CF0"/>
</svg>
