<svg width="64" height="64" viewBox="0 0 64 64" fill="none" xmlns="http://www.w3.org/2000/svg">
<path fill-rule="evenodd" clip-rule="evenodd" d="M29.08 16.1111H53.2222C54.1652 16.1111 55.0696 16.4857 55.7364 17.1525C56.4032 17.8193 56.7778 18.7237 56.7778 19.6667V51.6667C56.7778 52.6097 56.4032 53.514 55.7364 54.1808C55.0696 54.8476 54.1652 55.2222 53.2222 55.2222H10.5556C9.61256 55.2222 8.70819 54.8476 8.0414 54.1808C7.3746 53.514 7 52.6097 7 51.6667V12.5556C7 11.6126 7.3746 10.7082 8.0414 10.0414C8.70819 9.37461 9.61256 9.00001 10.5556 9.00001H22.0933C22.6544 8.99856 23.2077 9.12988 23.7083 9.38324C24.2088 9.63661 24.6423 10.0048 24.9733 10.4578L29.08 16.1111ZM10.5556 12.5556V19.6667H26.9289L22.0933 12.5556H10.5556ZM33.4388 28.5858C33.8139 28.9609 34.0246 29.4696 34.0246 30.0001V37.1722L36.6106 34.5862C36.9878 34.2218 37.493 34.0203 38.0174 34.0248C38.5418 34.0294 39.0434 34.2397 39.4142 34.6105C39.785 34.9814 39.9954 35.483 39.9999 36.0074C40.0045 36.5318 39.8029 37.037 39.4386 37.4143L33.4386 43.4144C33.0635 43.7894 32.5549 44 32.0246 44C31.4942 44 30.9856 43.7894 30.6106 43.4144L24.6106 37.4143C24.4196 37.2298 24.2672 37.0091 24.1624 36.765C24.0576 36.521 24.0024 36.2586 24.0001 35.993C23.9978 35.7274 24.0484 35.4641 24.1489 35.2183C24.2495 34.9725 24.398 34.7492 24.5858 34.5614C24.7736 34.3736 24.9969 34.2251 25.2427 34.1245C25.4885 34.024 25.7518 33.9733 26.0174 33.9757C26.2829 33.978 26.5454 34.0331 26.7894 34.138C27.0334 34.2428 27.2541 34.3952 27.4386 34.5862L30.0246 37.1722V30.0001C30.0246 29.4696 30.2353 28.9609 30.6104 28.5858C30.9854 28.2107 31.4941 28 32.0246 28C32.555 28 33.0637 28.2107 33.4388 28.5858Z" fill="#3AA6FF"/>
</svg>
