<svg width="64" height="64" viewBox="0 0 64 64" fill="none" xmlns="http://www.w3.org/2000/svg">
<path d="M50.7095 60.5065C50.3467 60.5065 50.0065 60.4502 49.689 60.3378C49.3715 60.2253 49.0767 60.0321 48.8046 59.7581L34.9255 45.879C34.6534 45.6069 34.4602 45.3121 34.3459 44.9946C34.2316 44.6771 34.1753 44.3369 34.1771 43.9741C34.179 43.6112 34.2361 43.2711 34.3486 42.9536C34.4611 42.6361 34.6534 42.3412 34.9255 42.0691L40.7085 36.2862C40.9806 36.014 41.2754 35.8217 41.5929 35.7092C41.9104 35.5968 42.2506 35.5396 42.6134 35.5378C42.9763 35.536 43.3165 35.5931 43.634 35.7092C43.9514 35.8254 44.2463 36.0177 44.5184 36.2862L58.3974 50.1652C58.6696 50.4374 58.8628 50.7322 58.9771 51.0497C59.0914 51.3672 59.1476 51.7073 59.1458 52.0702C59.144 52.433 59.0878 52.7732 58.9771 53.0907C58.8664 53.4082 58.6732 53.703 58.3974 53.9752L52.6145 59.7581C52.3424 60.0302 52.0476 60.2235 51.7301 60.3378C51.4126 60.452 51.0724 60.5083 50.7095 60.5065ZM13.3586 60.5745C12.9957 60.5745 12.6447 60.5065 12.3054 60.3704C11.9661 60.2343 11.6595 60.0302 11.3856 59.7581L5.67066 54.0432C5.39852 53.7711 5.19442 53.4644 5.05835 53.1234C4.92228 52.7823 4.85425 52.4321 4.85425 52.0729C4.85425 51.7137 4.92228 51.3735 5.05835 51.0524C5.19442 50.7313 5.39852 50.4365 5.67066 50.1679L20.094 35.7446H25.8769L28.1901 33.4314L16.9644 22.203H13.0864L4.85425 13.9708L12.5422 6.28293L20.7743 14.5151V18.3931L32 29.6188L39.892 21.7268L36.9666 18.8013L40.7765 14.9914H33.0886L31.1836 13.0864L40.8445 3.42548L42.7495 5.33044V13.0184L46.5594 9.20841L56.2203 18.8693C56.9914 19.6404 57.581 20.5139 57.9892 21.49C58.3975 22.4661 58.6016 23.4975 58.6016 24.5842C58.6016 25.671 58.3975 26.7142 57.9892 27.7138C57.581 28.7135 56.9914 29.5979 56.2203 30.3672L50.4374 24.5842L46.6275 28.3942L43.77 25.5367L29.6869 39.6199V45.3348L15.2635 59.7581C14.9914 60.0302 14.6966 60.2343 14.3791 60.3704C14.0616 60.5065 13.7214 60.5745 13.3586 60.5745Z" fill="#F76050"/>
</svg>
