<svg width="128" height="128" viewBox="0 0 128 128" fill="none" xmlns="http://www.w3.org/2000/svg">
<path d="M112.788 22.8625L91.165 12.4525C89.9439 11.8637 88.5699 11.6694 87.2335 11.8965C85.897 12.1237 84.6643 12.7609 83.7062 13.72L12.925 78.25C12.0662 79.0292 11.5522 80.1177 11.4959 81.276C11.4396 82.4342 11.8458 83.5674 12.625 84.4262C12.7188 84.5275 12.8125 84.625 12.9138 84.715L18.6925 89.965C19.4476 90.6522 20.4196 91.0533 21.4396 91.0985C22.4596 91.1437 23.4633 90.8302 24.2763 90.2125L109.533 25.5625C110.176 25.0738 110.944 24.7746 111.749 24.6985C112.554 24.6225 113.364 24.7725 114.088 25.1319C114.812 25.4912 115.421 26.0455 115.848 26.7325C116.274 27.4194 116.5 28.2116 116.5 29.02V28.7687C116.5 27.5346 116.151 26.3256 115.495 25.2807C114.838 24.2359 113.9 23.3976 112.788 22.8625V22.8625Z" fill="#0065A9"/>
<path d="M112.788 105.137L91.165 115.551C89.9435 116.138 88.5699 116.332 87.2339 116.105C85.8978 115.878 84.6652 115.241 83.7062 114.284L12.925 49.75C12.0662 48.9707 11.5522 47.8823 11.4959 46.724C11.4396 45.5657 11.8458 44.4326 12.625 43.5737C12.7188 43.4725 12.8125 43.375 12.9138 43.285L18.6925 38.035C19.4484 37.3449 20.4226 36.942 21.4451 36.8968C22.4677 36.8516 23.4736 37.1668 24.2875 37.7875L109.533 102.437C110.176 102.926 110.944 103.225 111.749 103.301C112.554 103.378 113.364 103.227 114.088 102.868C114.812 102.509 115.421 101.954 115.848 101.268C116.274 100.581 116.5 99.7884 116.5 98.98V99.25C116.496 100.481 116.146 101.686 115.489 102.727C114.833 103.768 113.896 104.603 112.788 105.137V105.137Z" fill="#007ACC"/>
<path d="M91.165 115.551C89.9436 116.138 88.57 116.332 87.2339 116.105C85.8978 115.878 84.6652 115.241 83.7063 114.284C84.2448 114.815 84.9282 115.176 85.6708 115.321C86.4135 115.466 87.1823 115.388 87.8811 115.098C88.5798 114.807 89.1773 114.317 89.5987 113.689C90.0201 113.06 90.2467 112.322 90.25 111.565V16.435C90.2506 15.6748 90.0256 14.9316 89.6035 14.2994C89.1814 13.6672 88.5811 13.1745 87.8787 12.8838C87.1763 12.593 86.4035 12.5173 85.658 12.6662C84.9126 12.815 84.2281 13.1818 83.6913 13.72C84.6495 12.7613 85.8819 12.124 87.2181 11.8962C88.5543 11.6685 89.9283 11.8616 91.15 12.4487L112.769 22.8437C113.884 23.3762 114.827 24.2133 115.487 25.2584C116.147 26.3034 116.498 27.5139 116.5 28.75V99.25C116.5 100.485 116.152 101.695 115.494 102.741C114.837 103.786 113.897 104.625 112.784 105.16L91.165 115.551Z" fill="#1F9CF0"/>
</svg>
